<?xml version="1.0" ?><svg data-name="Layer 1" id="Layer_1" viewBox="0 0 32 32" xmlns="http://www.w3.org/2000/svg" xmlns:xlink="http://www.w3.org/1999/xlink"><defs><style>.cls-1{fill:url(#linear-gradient);}.cls-2{fill:#fff;}.cls-3{fill:#1282ff;}</style><linearGradient gradientUnits="userSpaceOnUse" id="linear-gradient" x1="14" x2="14" y1="2" y2="30"><stop offset="0.24" stop-color="#cdeaff"/><stop offset="0.34" stop-color="#c2e4ff"/><stop offset="0.5" stop-color="#a5d5ff"/><stop offset="0.72" stop-color="#76bcff"/><stop offset="0.98" stop-color="#369aff"/><stop offset="1" stop-color="#3197ff"/></linearGradient></defs><title/><path class="cls-1" d="M16,16,26,6.2A14,14,0,1,0,25.8,26Z"/><circle class="cls-2" cx="13.5" cy="9.5" r="1.5"/><path class="cls-3" d="M27.41,6.22l-.7-.71A15,15,0,1,0,16,31a14.92,14.92,0,0,0,10.5-4.29l.71-.7-9.8-10ZM24.36,26A13,13,0,1,1,16,3a12.89,12.89,0,0,1,8.56,3.21L14.59,16Z"/><path class="cls-3" d="M16,9.5A2.5,2.5,0,1,0,13.5,12,2.5,2.5,0,0,0,16,9.5Zm-2.5.88a.88.88,0,1,1,.88-.87A.88.88,0,0,1,13.5,10.38Z"/></svg>