<?xml version="1.0" ?><svg data-name="Layer 1" id="Layer_1" viewBox="0 0 64 64" xmlns="http://www.w3.org/2000/svg"><title/><desc/><path d="M8.06,59V37.14A24,24,0,0,1,11,25.65l.14-.26A24,24,0,0,0,14.06,13.9V7h-3V13.9A24,24,0,0,1,8.13,25.39L8,25.65A24,24,0,0,0,5.06,37.14V59a2,2,0,0,0,2,2h3A2,2,0,0,1,8.06,59Z" style="fill:#cff09e"/><path d="M14.77,33.17l-.71.85-.7-.85a32.33,32.33,0,0,0-6.24-5.73,24,24,0,0,0-2.06,9.7V59a2,2,0,0,0,2,2h14a2,2,0,0,0,2-2V37.14A24,24,0,0,0,21,27.44,32.56,32.56,0,0,0,14.77,33.17Z" style="fill:#79bd9a"/><rect height="16" style="fill:#a8dba8" width="18" x="5.06" y="39.02"/><polygon points="14.06 43.21 15.3 45.72 18.06 46.12 16.06 48.07 16.53 50.82 14.06 49.52 11.59 50.82 12.06 48.07 10.06 46.12 12.82 45.72 14.06 43.21" style="fill:#cff09e"/><rect height="4" rx="1" ry="1" style="fill:#a8dba8" width="10" x="9.06" y="3.02"/><path d="M32.06,41V25h-2V41a6,6,0,0,0,6,6,5.47,5.47,0,0,0,1-.09A6,6,0,0,1,32.06,41Z" style="fill:#cff09e"/><path d="M36.06,47a6,6,0,0,1-2-.35V57l-5,4h2l5-4Z" style="fill:#cff09e"/><path d="M30.7,59.71,29.06,61h14l-1.64-1.31A19.43,19.43,0,0,0,36.06,59,19.43,19.43,0,0,0,30.7,59.71Z" style="fill:#cff09e"/><path d="M30.06,31h12a0,0,0,0,1,0,0V41a6,6,0,0,1-6,6h0a6,6,0,0,1-6-6V31A0,0,0,0,1,30.06,31Z" style="fill:#a8dba8"/><path d="M34.06,46.67v2a6.05,6.05,0,0,0,4,0v-2a5.89,5.89,0,0,1-4,0Z" style="fill:#cff09e"/><path d="M50.06,41V25h-2V41a6,6,0,0,0,6,6,5.47,5.47,0,0,0,1-.09A6,6,0,0,1,50.06,41Z" style="fill:#cff09e"/><path d="M54.06,47a6,6,0,0,1-2-.35V57l-5,4h2l5-4Z" style="fill:#cff09e"/><path d="M48.7,59.71,47.06,61h14l-1.64-1.31a21.16,21.16,0,0,0-10.72,0Z" style="fill:#cff09e"/><path d="M48.06,31h12a0,0,0,0,1,0,0V41a6,6,0,0,1-6,6h0a6,6,0,0,1-6-6V31A0,0,0,0,1,48.06,31Z" style="fill:#a8dba8"/><path d="M52.06,46.67v2a6.05,6.05,0,0,0,4,0v-2a5.89,5.89,0,0,1-4,0Z" style="fill:#cff09e"/><path d="M20.87,24.91a23,23,0,0,1-2.81-11V8h1a1,1,0,0,0,1-1V3a1,1,0,0,0-1-1h-10a1,1,0,0,0-1,1V7a1,1,0,0,0,1,1h1V13.9a23,23,0,0,1-2.81,11l-.14.26a25.14,25.14,0,0,0-3.05,12V59a3,3,0,0,0,3,3h14a3,3,0,0,0,3-3V37.14a25,25,0,0,0-3-12ZM10.06,4h8V6h-8ZM9,25.87a25,25,0,0,0,3.05-12V8h4V13.9a25.14,25.14,0,0,0,3.05,12l.14.25q.27.49.51,1a32.85,32.85,0,0,0-5.7,5.35,32.49,32.49,0,0,0-5.7-5.35c.17-.33.33-.66.51-1ZM22.06,54h-16V40h16Zm-1,6h-14a1,1,0,0,1-1-1V56h16v3A1,1,0,0,1,21.06,60Zm1-22h-16v-.88A23.06,23.06,0,0,1,7.55,29a31,31,0,0,1,5,4.81l.7.85a1,1,0,0,0,1.54,0l.71-.85a30.56,30.56,0,0,1,5-4.81,23.06,23.06,0,0,1,1.49,8.14Z" style="fill:#3b8686"/><path d="M9.36,46.84,11,48.42l-.39,2.23a1,1,0,0,0,1.46,1.06l2-1.06,2,1.06a.92.92,0,0,0,.46.11,1,1,0,0,0,.59-.19,1,1,0,0,0,.4-1l-.38-2.23,1.62-1.58a1,1,0,0,0-.55-1.71L16,44.8l-1-2a1,1,0,0,0-1.79,0l-1,2-2.24.33a1,1,0,0,0-.56,1.71ZM13,46.71a1,1,0,0,0,.75-.55l.34-.69.34.69a1,1,0,0,0,.75.55l.76.11-.55.53a1,1,0,0,0-.28.89l.13.75-.68-.35a1,1,0,0,0-.47-.12.93.93,0,0,0-.46.12l-.68.35.13-.75a1,1,0,0,0-.29-.89l-.55-.53Z" style="fill:#3b8686"/><path d="M43.69,60.24l-4.63-3.7v-9.2a7,7,0,0,0,4-6.32V25a1,1,0,0,0-1-1h-12a1,1,0,0,0-1,1V41a7,7,0,0,0,4,6.32v9.2l-4.62,3.7A1,1,0,0,0,29.06,62h14a1,1,0,0,0,.94-.67A1,1,0,0,0,43.69,60.24ZM41.06,26v4h-10V26Zm-10,15V32h10v9a5,5,0,0,1-3.24,4.68l-.18.06a4.93,4.93,0,0,1-3.16,0l-.17-.06A5,5,0,0,1,31.06,41Zm.85,19,2.78-2.22a1,1,0,0,0,.37-.78V48a7.18,7.18,0,0,0,2,0V57a1,1,0,0,0,.38.78L40.21,60Z" style="fill:#3b8686"/><circle cx="34.06" cy="36.02" r="1" style="fill:#3b8686"/><circle cx="36.06" cy="42.02" r="1" style="fill:#3b8686"/><circle cx="38.06" cy="38.02" r="1" style="fill:#3b8686"/><path d="M61.69,60.24l-4.63-3.7v-9.2a7,7,0,0,0,4-6.32V25a1,1,0,0,0-1-1h-12a1,1,0,0,0-1,1V41a7,7,0,0,0,4,6.32v9.2l-4.62,3.7A1,1,0,0,0,47.06,62h14a1,1,0,0,0,.94-.67A1,1,0,0,0,61.69,60.24ZM59.06,26v4h-10V26Zm-10,15V32h10v9a5,5,0,0,1-3.24,4.68l-.18.06a4.93,4.93,0,0,1-3.16,0l-.17-.06A5,5,0,0,1,49.06,41Zm.85,19,2.78-2.22a1,1,0,0,0,.37-.78V48a7.18,7.18,0,0,0,2,0V57a1,1,0,0,0,.38.78L58.21,60Z" style="fill:#3b8686"/><circle cx="52.06" cy="36.02" r="1" style="fill:#3b8686"/><circle cx="54.06" cy="42.02" r="1" style="fill:#3b8686"/><circle cx="56.06" cy="35.02" r="1" style="fill:#3b8686"/></svg>